<mxfile host="app.diagrams.net" modified="2023-10-20T13:44:08.375Z" agent="Mozilla/5.0 (Windows NT 10.0; Win64; x64) AppleWebKit/537.36 (KHTML, like Gecko) Chrome/118.0.0.0 Safari/537.36" etag="jFvnzbGINPs1qF2IYQq4" version="22.0.5" type="device">
  <diagram name="Page-1" id="2Psosl3usSGLXp_8EubP">
    <mxGraphModel dx="3217" dy="2419" grid="1" gridSize="10" guides="1" tooltips="1" connect="1" arrows="1" fold="1" page="1" pageScale="1" pageWidth="827" pageHeight="1169" math="0" shadow="0">
      <root>
        <mxCell id="0" />
        <mxCell id="1" parent="0" />
        <mxCell id="bw-IX-_6H2uLO_dws2v9-1" value="Organizer" style="swimlane;fontStyle=0;childLayout=stackLayout;horizontal=1;startSize=30;horizontalStack=0;resizeParent=1;resizeParentMax=0;resizeLast=0;collapsible=1;marginBottom=0;whiteSpace=wrap;html=1;" parent="1" vertex="1">
          <mxGeometry x="-230" y="160" width="140" height="360" as="geometry">
            <mxRectangle x="40" y="160" width="90" height="30" as="alternateBounds" />
          </mxGeometry>
        </mxCell>
        <mxCell id="1MxPp7PBHnicv2gRr7QU-12" value="siret" style="text;strokeColor=none;fillColor=none;align=left;verticalAlign=middle;spacingLeft=4;spacingRight=4;overflow=hidden;points=[[0,0.5],[1,0.5]];portConstraint=eastwest;rotatable=0;whiteSpace=wrap;html=1;" vertex="1" parent="bw-IX-_6H2uLO_dws2v9-1">
          <mxGeometry y="30" width="140" height="30" as="geometry" />
        </mxCell>
        <mxCell id="bw-IX-_6H2uLO_dws2v9-2" value="firstname" style="text;strokeColor=none;fillColor=none;align=left;verticalAlign=middle;spacingLeft=4;spacingRight=4;overflow=hidden;points=[[0,0.5],[1,0.5]];portConstraint=eastwest;rotatable=0;whiteSpace=wrap;html=1;" parent="bw-IX-_6H2uLO_dws2v9-1" vertex="1">
          <mxGeometry y="60" width="140" height="30" as="geometry" />
        </mxCell>
        <mxCell id="bw-IX-_6H2uLO_dws2v9-3" value="lastname" style="text;strokeColor=none;fillColor=none;align=left;verticalAlign=middle;spacingLeft=4;spacingRight=4;overflow=hidden;points=[[0,0.5],[1,0.5]];portConstraint=eastwest;rotatable=0;whiteSpace=wrap;html=1;" parent="bw-IX-_6H2uLO_dws2v9-1" vertex="1">
          <mxGeometry y="90" width="140" height="30" as="geometry" />
        </mxCell>
        <mxCell id="bw-IX-_6H2uLO_dws2v9-4" value="birthdate" style="text;strokeColor=none;fillColor=none;align=left;verticalAlign=middle;spacingLeft=4;spacingRight=4;overflow=hidden;points=[[0,0.5],[1,0.5]];portConstraint=eastwest;rotatable=0;whiteSpace=wrap;html=1;" parent="bw-IX-_6H2uLO_dws2v9-1" vertex="1">
          <mxGeometry y="120" width="140" height="30" as="geometry" />
        </mxCell>
        <mxCell id="bw-IX-_6H2uLO_dws2v9-18" value="region" style="text;strokeColor=none;fillColor=none;align=left;verticalAlign=middle;spacingLeft=4;spacingRight=4;overflow=hidden;points=[[0,0.5],[1,0.5]];portConstraint=eastwest;rotatable=0;whiteSpace=wrap;html=1;" parent="bw-IX-_6H2uLO_dws2v9-1" vertex="1">
          <mxGeometry y="150" width="140" height="30" as="geometry" />
        </mxCell>
        <mxCell id="bw-IX-_6H2uLO_dws2v9-19" value="city" style="text;strokeColor=none;fillColor=none;align=left;verticalAlign=middle;spacingLeft=4;spacingRight=4;overflow=hidden;points=[[0,0.5],[1,0.5]];portConstraint=eastwest;rotatable=0;whiteSpace=wrap;html=1;" parent="bw-IX-_6H2uLO_dws2v9-1" vertex="1">
          <mxGeometry y="180" width="140" height="30" as="geometry" />
        </mxCell>
        <mxCell id="bw-IX-_6H2uLO_dws2v9-20" value="phone_number" style="text;strokeColor=none;fillColor=none;align=left;verticalAlign=middle;spacingLeft=4;spacingRight=4;overflow=hidden;points=[[0,0.5],[1,0.5]];portConstraint=eastwest;rotatable=0;whiteSpace=wrap;html=1;" parent="bw-IX-_6H2uLO_dws2v9-1" vertex="1">
          <mxGeometry y="210" width="140" height="30" as="geometry" />
        </mxCell>
        <mxCell id="bw-IX-_6H2uLO_dws2v9-21" value="email" style="text;strokeColor=none;fillColor=none;align=left;verticalAlign=middle;spacingLeft=4;spacingRight=4;overflow=hidden;points=[[0,0.5],[1,0.5]];portConstraint=eastwest;rotatable=0;whiteSpace=wrap;html=1;" parent="bw-IX-_6H2uLO_dws2v9-1" vertex="1">
          <mxGeometry y="240" width="140" height="30" as="geometry" />
        </mxCell>
        <mxCell id="bw-IX-_6H2uLO_dws2v9-22" value="picture" style="text;strokeColor=none;fillColor=none;align=left;verticalAlign=middle;spacingLeft=4;spacingRight=4;overflow=hidden;points=[[0,0.5],[1,0.5]];portConstraint=eastwest;rotatable=0;whiteSpace=wrap;html=1;" parent="bw-IX-_6H2uLO_dws2v9-1" vertex="1">
          <mxGeometry y="270" width="140" height="30" as="geometry" />
        </mxCell>
        <mxCell id="bw-IX-_6H2uLO_dws2v9-32" value="created_at" style="text;strokeColor=none;fillColor=none;align=left;verticalAlign=middle;spacingLeft=4;spacingRight=4;overflow=hidden;points=[[0,0.5],[1,0.5]];portConstraint=eastwest;rotatable=0;whiteSpace=wrap;html=1;" parent="bw-IX-_6H2uLO_dws2v9-1" vertex="1">
          <mxGeometry y="300" width="140" height="30" as="geometry" />
        </mxCell>
        <mxCell id="bw-IX-_6H2uLO_dws2v9-33" value="updated_at" style="text;strokeColor=none;fillColor=none;align=left;verticalAlign=middle;spacingLeft=4;spacingRight=4;overflow=hidden;points=[[0,0.5],[1,0.5]];portConstraint=eastwest;rotatable=0;whiteSpace=wrap;html=1;" parent="bw-IX-_6H2uLO_dws2v9-1" vertex="1">
          <mxGeometry y="330" width="140" height="30" as="geometry" />
        </mxCell>
        <mxCell id="bw-IX-_6H2uLO_dws2v9-5" value="Event" style="swimlane;fontStyle=0;childLayout=stackLayout;horizontal=1;startSize=30;horizontalStack=0;resizeParent=1;resizeParentMax=0;resizeLast=0;collapsible=1;marginBottom=0;whiteSpace=wrap;html=1;" parent="1" vertex="1">
          <mxGeometry x="390" y="160" width="140" height="240" as="geometry" />
        </mxCell>
        <mxCell id="bw-IX-_6H2uLO_dws2v9-6" value="title" style="text;strokeColor=none;fillColor=none;align=left;verticalAlign=middle;spacingLeft=4;spacingRight=4;overflow=hidden;points=[[0,0.5],[1,0.5]];portConstraint=eastwest;rotatable=0;whiteSpace=wrap;html=1;" parent="bw-IX-_6H2uLO_dws2v9-5" vertex="1">
          <mxGeometry y="30" width="140" height="30" as="geometry" />
        </mxCell>
        <mxCell id="bw-IX-_6H2uLO_dws2v9-7" value="content" style="text;strokeColor=none;fillColor=none;align=left;verticalAlign=middle;spacingLeft=4;spacingRight=4;overflow=hidden;points=[[0,0.5],[1,0.5]];portConstraint=eastwest;rotatable=0;whiteSpace=wrap;html=1;" parent="bw-IX-_6H2uLO_dws2v9-5" vertex="1">
          <mxGeometry y="60" width="140" height="30" as="geometry" />
        </mxCell>
        <mxCell id="bw-IX-_6H2uLO_dws2v9-8" value="date_start" style="text;strokeColor=none;fillColor=none;align=left;verticalAlign=middle;spacingLeft=4;spacingRight=4;overflow=hidden;points=[[0,0.5],[1,0.5]];portConstraint=eastwest;rotatable=0;whiteSpace=wrap;html=1;" parent="bw-IX-_6H2uLO_dws2v9-5" vertex="1">
          <mxGeometry y="90" width="140" height="30" as="geometry" />
        </mxCell>
        <mxCell id="1MxPp7PBHnicv2gRr7QU-67" value="date_end" style="text;strokeColor=none;fillColor=none;align=left;verticalAlign=middle;spacingLeft=4;spacingRight=4;overflow=hidden;points=[[0,0.5],[1,0.5]];portConstraint=eastwest;rotatable=0;whiteSpace=wrap;html=1;" vertex="1" parent="bw-IX-_6H2uLO_dws2v9-5">
          <mxGeometry y="120" width="140" height="30" as="geometry" />
        </mxCell>
        <mxCell id="bw-IX-_6H2uLO_dws2v9-23" value="picture" style="text;strokeColor=none;fillColor=none;align=left;verticalAlign=middle;spacingLeft=4;spacingRight=4;overflow=hidden;points=[[0,0.5],[1,0.5]];portConstraint=eastwest;rotatable=0;whiteSpace=wrap;html=1;" parent="bw-IX-_6H2uLO_dws2v9-5" vertex="1">
          <mxGeometry y="150" width="140" height="30" as="geometry" />
        </mxCell>
        <mxCell id="bw-IX-_6H2uLO_dws2v9-34" value="created_at" style="text;strokeColor=none;fillColor=none;align=left;verticalAlign=middle;spacingLeft=4;spacingRight=4;overflow=hidden;points=[[0,0.5],[1,0.5]];portConstraint=eastwest;rotatable=0;whiteSpace=wrap;html=1;" parent="bw-IX-_6H2uLO_dws2v9-5" vertex="1">
          <mxGeometry y="180" width="140" height="30" as="geometry" />
        </mxCell>
        <mxCell id="bw-IX-_6H2uLO_dws2v9-35" value="updated_at" style="text;strokeColor=none;fillColor=none;align=left;verticalAlign=middle;spacingLeft=4;spacingRight=4;overflow=hidden;points=[[0,0.5],[1,0.5]];portConstraint=eastwest;rotatable=0;whiteSpace=wrap;html=1;" parent="bw-IX-_6H2uLO_dws2v9-5" vertex="1">
          <mxGeometry y="210" width="140" height="30" as="geometry" />
        </mxCell>
        <mxCell id="1MxPp7PBHnicv2gRr7QU-68" value="" style="endArrow=none;html=1;rounded=0;entryX=0.5;entryY=0.967;entryDx=0;entryDy=0;entryPerimeter=0;" edge="1" parent="bw-IX-_6H2uLO_dws2v9-5" target="bw-IX-_6H2uLO_dws2v9-35">
          <mxGeometry width="50" height="50" relative="1" as="geometry">
            <mxPoint x="70" y="280" as="sourcePoint" />
            <mxPoint x="120" y="230" as="targetPoint" />
          </mxGeometry>
        </mxCell>
        <mxCell id="bw-IX-_6H2uLO_dws2v9-9" value="CrÃ©er" style="ellipse;whiteSpace=wrap;html=1;" parent="1" vertex="1">
          <mxGeometry x="100" y="200" width="100" height="40" as="geometry" />
        </mxCell>
        <mxCell id="bw-IX-_6H2uLO_dws2v9-14" value="" style="endArrow=none;html=1;rounded=0;entryX=0;entryY=0.5;entryDx=0;entryDy=0;exitX=0.993;exitY=-0.067;exitDx=0;exitDy=0;exitPerimeter=0;" parent="1" source="bw-IX-_6H2uLO_dws2v9-2" edge="1" target="bw-IX-_6H2uLO_dws2v9-9">
          <mxGeometry width="50" height="50" relative="1" as="geometry">
            <mxPoint x="180" y="220" as="sourcePoint" />
            <mxPoint x="230" y="220" as="targetPoint" />
          </mxGeometry>
        </mxCell>
        <mxCell id="bw-IX-_6H2uLO_dws2v9-15" value="" style="endArrow=none;html=1;rounded=0;exitX=1;exitY=0.5;exitDx=0;exitDy=0;" parent="1" edge="1" source="bw-IX-_6H2uLO_dws2v9-9">
          <mxGeometry width="50" height="50" relative="1" as="geometry">
            <mxPoint x="350" y="219.5" as="sourcePoint" />
            <mxPoint x="390" y="220" as="targetPoint" />
          </mxGeometry>
        </mxCell>
        <mxCell id="bw-IX-_6H2uLO_dws2v9-16" value="0,N" style="text;html=1;strokeColor=none;fillColor=none;align=center;verticalAlign=middle;whiteSpace=wrap;rounded=0;" parent="1" vertex="1">
          <mxGeometry x="-100" y="220" width="60" height="30" as="geometry" />
        </mxCell>
        <mxCell id="bw-IX-_6H2uLO_dws2v9-17" value="1,1" style="text;html=1;strokeColor=none;fillColor=none;align=center;verticalAlign=middle;whiteSpace=wrap;rounded=0;" parent="1" vertex="1">
          <mxGeometry x="340" y="220" width="60" height="30" as="geometry" />
        </mxCell>
        <mxCell id="bw-IX-_6H2uLO_dws2v9-25" value="Tag" style="swimlane;fontStyle=0;childLayout=stackLayout;horizontal=1;startSize=30;horizontalStack=0;resizeParent=1;resizeParentMax=0;resizeLast=0;collapsible=1;marginBottom=0;whiteSpace=wrap;html=1;" parent="1" vertex="1">
          <mxGeometry x="390" y="520" width="140" height="60" as="geometry" />
        </mxCell>
        <mxCell id="bw-IX-_6H2uLO_dws2v9-26" value="name&lt;br&gt;" style="text;strokeColor=none;fillColor=none;align=left;verticalAlign=middle;spacingLeft=4;spacingRight=4;overflow=hidden;points=[[0,0.5],[1,0.5]];portConstraint=eastwest;rotatable=0;whiteSpace=wrap;html=1;" parent="bw-IX-_6H2uLO_dws2v9-25" vertex="1">
          <mxGeometry y="30" width="140" height="30" as="geometry" />
        </mxCell>
        <mxCell id="bw-IX-_6H2uLO_dws2v9-29" value="Avoir" style="ellipse;whiteSpace=wrap;html=1;align=center;" parent="1" vertex="1">
          <mxGeometry x="410" y="440" width="100" height="40" as="geometry" />
        </mxCell>
        <mxCell id="bw-IX-_6H2uLO_dws2v9-36" value="0,N" style="text;html=1;strokeColor=none;fillColor=none;align=center;verticalAlign=middle;whiteSpace=wrap;rounded=0;" parent="1" vertex="1">
          <mxGeometry x="414" y="400" width="60" height="30" as="geometry" />
        </mxCell>
        <mxCell id="bw-IX-_6H2uLO_dws2v9-37" value="0,N" style="text;html=1;strokeColor=none;fillColor=none;align=center;verticalAlign=middle;whiteSpace=wrap;rounded=0;" parent="1" vertex="1">
          <mxGeometry x="414" y="490" width="60" height="30" as="geometry" />
        </mxCell>
        <mxCell id="bw-IX-_6H2uLO_dws2v9-38" value="event_tag" style="swimlane;fontStyle=0;childLayout=stackLayout;horizontal=1;startSize=30;horizontalStack=0;resizeParent=1;resizeParentMax=0;resizeLast=0;collapsible=1;marginBottom=0;whiteSpace=wrap;html=1;" parent="1" vertex="1">
          <mxGeometry x="610" y="400" width="140" height="90" as="geometry" />
        </mxCell>
        <mxCell id="bw-IX-_6H2uLO_dws2v9-39" value="event_id" style="text;strokeColor=none;fillColor=none;align=left;verticalAlign=middle;spacingLeft=4;spacingRight=4;overflow=hidden;points=[[0,0.5],[1,0.5]];portConstraint=eastwest;rotatable=0;whiteSpace=wrap;html=1;" parent="bw-IX-_6H2uLO_dws2v9-38" vertex="1">
          <mxGeometry y="30" width="140" height="30" as="geometry" />
        </mxCell>
        <mxCell id="bw-IX-_6H2uLO_dws2v9-40" value="tag_id" style="text;strokeColor=none;fillColor=none;align=left;verticalAlign=middle;spacingLeft=4;spacingRight=4;overflow=hidden;points=[[0,0.5],[1,0.5]];portConstraint=eastwest;rotatable=0;whiteSpace=wrap;html=1;" parent="bw-IX-_6H2uLO_dws2v9-38" vertex="1">
          <mxGeometry y="60" width="140" height="30" as="geometry" />
        </mxCell>
        <mxCell id="bw-IX-_6H2uLO_dws2v9-43" value="" style="endArrow=none;dashed=1;html=1;dashPattern=1 3;strokeWidth=2;rounded=0;" parent="1" edge="1">
          <mxGeometry width="50" height="50" relative="1" as="geometry">
            <mxPoint x="530" y="550" as="sourcePoint" />
            <mxPoint x="640" y="550" as="targetPoint" />
          </mxGeometry>
        </mxCell>
        <mxCell id="bw-IX-_6H2uLO_dws2v9-44" value="" style="endArrow=none;dashed=1;html=1;dashPattern=1 3;strokeWidth=2;rounded=0;" parent="1" edge="1">
          <mxGeometry width="50" height="50" relative="1" as="geometry">
            <mxPoint x="530" y="360" as="sourcePoint" />
            <mxPoint x="640" y="360" as="targetPoint" />
          </mxGeometry>
        </mxCell>
        <mxCell id="bw-IX-_6H2uLO_dws2v9-47" value="Table pivot&lt;br&gt;" style="shape=callout;whiteSpace=wrap;html=1;perimeter=calloutPerimeter;" parent="1" vertex="1">
          <mxGeometry x="680" y="330" width="90" height="60" as="geometry" />
        </mxCell>
        <mxCell id="Tn6UdyqkFmI2WBixfoAO-17" value="Artist" style="swimlane;fontStyle=0;childLayout=stackLayout;horizontal=1;startSize=30;horizontalStack=0;resizeParent=1;resizeParentMax=0;resizeLast=0;collapsible=1;marginBottom=0;whiteSpace=wrap;html=1;" parent="1" vertex="1">
          <mxGeometry x="390" y="-370" width="140" height="390" as="geometry" />
        </mxCell>
        <mxCell id="Tn6UdyqkFmI2WBixfoAO-18" value="firstname" style="text;strokeColor=none;fillColor=none;align=left;verticalAlign=middle;spacingLeft=4;spacingRight=4;overflow=hidden;points=[[0,0.5],[1,0.5]];portConstraint=eastwest;rotatable=0;whiteSpace=wrap;html=1;" parent="Tn6UdyqkFmI2WBixfoAO-17" vertex="1">
          <mxGeometry y="30" width="140" height="30" as="geometry" />
        </mxCell>
        <mxCell id="Tn6UdyqkFmI2WBixfoAO-19" value="lastname" style="text;strokeColor=none;fillColor=none;align=left;verticalAlign=middle;spacingLeft=4;spacingRight=4;overflow=hidden;points=[[0,0.5],[1,0.5]];portConstraint=eastwest;rotatable=0;whiteSpace=wrap;html=1;" parent="Tn6UdyqkFmI2WBixfoAO-17" vertex="1">
          <mxGeometry y="60" width="140" height="30" as="geometry" />
        </mxCell>
        <mxCell id="Tn6UdyqkFmI2WBixfoAO-20" value="birthday" style="text;strokeColor=none;fillColor=none;align=left;verticalAlign=middle;spacingLeft=4;spacingRight=4;overflow=hidden;points=[[0,0.5],[1,0.5]];portConstraint=eastwest;rotatable=0;whiteSpace=wrap;html=1;" parent="Tn6UdyqkFmI2WBixfoAO-17" vertex="1">
          <mxGeometry y="90" width="140" height="30" as="geometry" />
        </mxCell>
        <mxCell id="Tn6UdyqkFmI2WBixfoAO-21" value="region" style="text;strokeColor=none;fillColor=none;align=left;verticalAlign=middle;spacingLeft=4;spacingRight=4;overflow=hidden;points=[[0,0.5],[1,0.5]];portConstraint=eastwest;rotatable=0;whiteSpace=wrap;html=1;" parent="Tn6UdyqkFmI2WBixfoAO-17" vertex="1">
          <mxGeometry y="120" width="140" height="30" as="geometry" />
        </mxCell>
        <mxCell id="Tn6UdyqkFmI2WBixfoAO-22" value="city" style="text;strokeColor=none;fillColor=none;align=left;verticalAlign=middle;spacingLeft=4;spacingRight=4;overflow=hidden;points=[[0,0.5],[1,0.5]];portConstraint=eastwest;rotatable=0;whiteSpace=wrap;html=1;" parent="Tn6UdyqkFmI2WBixfoAO-17" vertex="1">
          <mxGeometry y="150" width="140" height="30" as="geometry" />
        </mxCell>
        <mxCell id="Tn6UdyqkFmI2WBixfoAO-23" value="phone_number" style="text;strokeColor=none;fillColor=none;align=left;verticalAlign=middle;spacingLeft=4;spacingRight=4;overflow=hidden;points=[[0,0.5],[1,0.5]];portConstraint=eastwest;rotatable=0;whiteSpace=wrap;html=1;" parent="Tn6UdyqkFmI2WBixfoAO-17" vertex="1">
          <mxGeometry y="180" width="140" height="30" as="geometry" />
        </mxCell>
        <mxCell id="Tn6UdyqkFmI2WBixfoAO-24" value="email" style="text;strokeColor=none;fillColor=none;align=left;verticalAlign=middle;spacingLeft=4;spacingRight=4;overflow=hidden;points=[[0,0.5],[1,0.5]];portConstraint=eastwest;rotatable=0;whiteSpace=wrap;html=1;" parent="Tn6UdyqkFmI2WBixfoAO-17" vertex="1">
          <mxGeometry y="210" width="140" height="30" as="geometry" />
        </mxCell>
        <mxCell id="Tn6UdyqkFmI2WBixfoAO-25" value="picture" style="text;strokeColor=none;fillColor=none;align=left;verticalAlign=middle;spacingLeft=4;spacingRight=4;overflow=hidden;points=[[0,0.5],[1,0.5]];portConstraint=eastwest;rotatable=0;whiteSpace=wrap;html=1;" parent="Tn6UdyqkFmI2WBixfoAO-17" vertex="1">
          <mxGeometry y="240" width="140" height="30" as="geometry" />
        </mxCell>
        <mxCell id="Tn6UdyqkFmI2WBixfoAO-28" value="music" style="text;strokeColor=none;fillColor=none;align=left;verticalAlign=middle;spacingLeft=4;spacingRight=4;overflow=hidden;points=[[0,0.5],[1,0.5]];portConstraint=eastwest;rotatable=0;whiteSpace=wrap;html=1;" parent="Tn6UdyqkFmI2WBixfoAO-17" vertex="1">
          <mxGeometry y="270" width="140" height="30" as="geometry" />
        </mxCell>
        <mxCell id="1MxPp7PBHnicv2gRr7QU-11" value="role_id" style="text;strokeColor=none;fillColor=none;align=left;verticalAlign=middle;spacingLeft=4;spacingRight=4;overflow=hidden;points=[[0,0.5],[1,0.5]];portConstraint=eastwest;rotatable=0;whiteSpace=wrap;html=1;" vertex="1" parent="Tn6UdyqkFmI2WBixfoAO-17">
          <mxGeometry y="300" width="140" height="30" as="geometry" />
        </mxCell>
        <mxCell id="1MxPp7PBHnicv2gRr7QU-29" value="created_at" style="text;strokeColor=none;fillColor=none;align=left;verticalAlign=middle;spacingLeft=4;spacingRight=4;overflow=hidden;points=[[0,0.5],[1,0.5]];portConstraint=eastwest;rotatable=0;whiteSpace=wrap;html=1;" vertex="1" parent="Tn6UdyqkFmI2WBixfoAO-17">
          <mxGeometry y="330" width="140" height="30" as="geometry" />
        </mxCell>
        <mxCell id="1MxPp7PBHnicv2gRr7QU-30" value="updated_at" style="text;strokeColor=none;fillColor=none;align=left;verticalAlign=middle;spacingLeft=4;spacingRight=4;overflow=hidden;points=[[0,0.5],[1,0.5]];portConstraint=eastwest;rotatable=0;whiteSpace=wrap;html=1;" vertex="1" parent="Tn6UdyqkFmI2WBixfoAO-17">
          <mxGeometry y="360" width="140" height="30" as="geometry" />
        </mxCell>
        <mxCell id="Tn6UdyqkFmI2WBixfoAO-30" value="Participer" style="ellipse;whiteSpace=wrap;html=1;align=center;" parent="1" vertex="1">
          <mxGeometry x="410" y="60" width="100" height="40" as="geometry" />
        </mxCell>
        <mxCell id="Tn6UdyqkFmI2WBixfoAO-31" value="" style="endArrow=none;html=1;rounded=0;entryX=0.5;entryY=1;entryDx=0;entryDy=0;exitX=0.5;exitY=0;exitDx=0;exitDy=0;" parent="1" source="bw-IX-_6H2uLO_dws2v9-5" target="Tn6UdyqkFmI2WBixfoAO-30" edge="1">
          <mxGeometry width="50" height="50" relative="1" as="geometry">
            <mxPoint x="460" y="160" as="sourcePoint" />
            <mxPoint x="510" y="110" as="targetPoint" />
          </mxGeometry>
        </mxCell>
        <mxCell id="Tn6UdyqkFmI2WBixfoAO-33" value="0,1" style="text;html=1;strokeColor=none;fillColor=none;align=center;verticalAlign=middle;whiteSpace=wrap;rounded=0;" parent="1" vertex="1">
          <mxGeometry x="450" y="130" width="60" height="30" as="geometry" />
        </mxCell>
        <mxCell id="Tn6UdyqkFmI2WBixfoAO-32" value="" style="endArrow=none;html=1;rounded=0;exitX=0.5;exitY=0;exitDx=0;exitDy=0;" parent="1" edge="1" source="Tn6UdyqkFmI2WBixfoAO-30">
          <mxGeometry width="50" height="50" relative="1" as="geometry">
            <mxPoint x="460" as="sourcePoint" />
            <mxPoint x="460" y="20" as="targetPoint" />
          </mxGeometry>
        </mxCell>
        <mxCell id="1MxPp7PBHnicv2gRr7QU-14" value="Role" style="swimlane;fontStyle=0;childLayout=stackLayout;horizontal=1;startSize=30;horizontalStack=0;resizeParent=1;resizeParentMax=0;resizeLast=0;collapsible=1;marginBottom=0;whiteSpace=wrap;html=1;" vertex="1" parent="1">
          <mxGeometry x="-230" y="-200" width="140" height="60" as="geometry" />
        </mxCell>
        <mxCell id="1MxPp7PBHnicv2gRr7QU-15" value="name" style="text;strokeColor=none;fillColor=none;align=left;verticalAlign=middle;spacingLeft=4;spacingRight=4;overflow=hidden;points=[[0,0.5],[1,0.5]];portConstraint=eastwest;rotatable=0;whiteSpace=wrap;html=1;" vertex="1" parent="1MxPp7PBHnicv2gRr7QU-14">
          <mxGeometry y="30" width="140" height="30" as="geometry" />
        </mxCell>
        <mxCell id="1MxPp7PBHnicv2gRr7QU-18" value="" style="endArrow=none;html=1;rounded=0;entryX=0;entryY=0.5;entryDx=0;entryDy=0;" edge="1" parent="1" target="1MxPp7PBHnicv2gRr7QU-19">
          <mxGeometry width="50" height="50" relative="1" as="geometry">
            <mxPoint x="-90" y="-180" as="sourcePoint" />
            <mxPoint x="-30" y="-180" as="targetPoint" />
          </mxGeometry>
        </mxCell>
        <mxCell id="1MxPp7PBHnicv2gRr7QU-19" value="Appartenir" style="ellipse;whiteSpace=wrap;html=1;align=center;" vertex="1" parent="1">
          <mxGeometry x="10" y="-200" width="100" height="40" as="geometry" />
        </mxCell>
        <mxCell id="1MxPp7PBHnicv2gRr7QU-20" value="Appartenir" style="ellipse;whiteSpace=wrap;html=1;align=center;" vertex="1" parent="1">
          <mxGeometry x="-220" y="-20" width="100" height="40" as="geometry" />
        </mxCell>
        <mxCell id="1MxPp7PBHnicv2gRr7QU-21" value="" style="endArrow=none;html=1;rounded=0;entryX=0.436;entryY=1;entryDx=0;entryDy=0;entryPerimeter=0;exitX=0.5;exitY=0;exitDx=0;exitDy=0;" edge="1" parent="1" source="1MxPp7PBHnicv2gRr7QU-20" target="1MxPp7PBHnicv2gRr7QU-15">
          <mxGeometry width="50" height="50" relative="1" as="geometry">
            <mxPoint x="100" y="-80" as="sourcePoint" />
            <mxPoint x="150" y="-130" as="targetPoint" />
          </mxGeometry>
        </mxCell>
        <mxCell id="1MxPp7PBHnicv2gRr7QU-22" value="" style="endArrow=none;html=1;rounded=0;exitX=1;exitY=0.5;exitDx=0;exitDy=0;" edge="1" parent="1" source="1MxPp7PBHnicv2gRr7QU-19">
          <mxGeometry width="50" height="50" relative="1" as="geometry">
            <mxPoint x="340" y="-180" as="sourcePoint" />
            <mxPoint x="390" y="-180" as="targetPoint" />
          </mxGeometry>
        </mxCell>
        <mxCell id="1MxPp7PBHnicv2gRr7QU-23" value="" style="endArrow=none;html=1;rounded=0;entryX=0.5;entryY=1;entryDx=0;entryDy=0;exitX=0.429;exitY=0;exitDx=0;exitDy=0;exitPerimeter=0;" edge="1" parent="1" source="bw-IX-_6H2uLO_dws2v9-1" target="1MxPp7PBHnicv2gRr7QU-20">
          <mxGeometry width="50" height="50" relative="1" as="geometry">
            <mxPoint x="-170" y="150" as="sourcePoint" />
            <mxPoint x="98" y="10" as="targetPoint" />
          </mxGeometry>
        </mxCell>
        <mxCell id="1MxPp7PBHnicv2gRr7QU-24" value="0,N" style="text;html=1;strokeColor=none;fillColor=none;align=center;verticalAlign=middle;whiteSpace=wrap;rounded=0;" vertex="1" parent="1">
          <mxGeometry x="-100" y="-180" width="60" height="30" as="geometry" />
        </mxCell>
        <mxCell id="1MxPp7PBHnicv2gRr7QU-25" value="0,N" style="text;html=1;strokeColor=none;fillColor=none;align=center;verticalAlign=middle;whiteSpace=wrap;rounded=0;" vertex="1" parent="1">
          <mxGeometry x="-180" y="-140" width="60" height="30" as="geometry" />
        </mxCell>
        <mxCell id="1MxPp7PBHnicv2gRr7QU-26" value="1,1" style="text;html=1;strokeColor=none;fillColor=none;align=center;verticalAlign=middle;whiteSpace=wrap;rounded=0;" vertex="1" parent="1">
          <mxGeometry x="340" y="-180" width="60" height="30" as="geometry" />
        </mxCell>
        <mxCell id="1MxPp7PBHnicv2gRr7QU-27" value="1,1" style="text;html=1;strokeColor=none;fillColor=none;align=center;verticalAlign=middle;whiteSpace=wrap;rounded=0;" vertex="1" parent="1">
          <mxGeometry x="-100" y="160" width="60" height="30" as="geometry" />
        </mxCell>
        <mxCell id="1MxPp7PBHnicv2gRr7QU-31" value="Genre" style="swimlane;fontStyle=0;childLayout=stackLayout;horizontal=1;startSize=30;horizontalStack=0;resizeParent=1;resizeParentMax=0;resizeLast=0;collapsible=1;marginBottom=0;whiteSpace=wrap;html=1;" vertex="1" parent="1">
          <mxGeometry x="220" y="-470" width="140" height="60" as="geometry" />
        </mxCell>
        <mxCell id="1MxPp7PBHnicv2gRr7QU-32" value="name" style="text;strokeColor=none;fillColor=none;align=left;verticalAlign=middle;spacingLeft=4;spacingRight=4;overflow=hidden;points=[[0,0.5],[1,0.5]];portConstraint=eastwest;rotatable=0;whiteSpace=wrap;html=1;" vertex="1" parent="1MxPp7PBHnicv2gRr7QU-31">
          <mxGeometry y="30" width="140" height="30" as="geometry" />
        </mxCell>
        <mxCell id="1MxPp7PBHnicv2gRr7QU-35" value="Appartenir" style="ellipse;whiteSpace=wrap;html=1;align=center;" vertex="1" parent="1">
          <mxGeometry x="414" y="-460" width="100" height="40" as="geometry" />
        </mxCell>
        <mxCell id="1MxPp7PBHnicv2gRr7QU-36" value="" style="endArrow=none;html=1;rounded=0;entryX=0;entryY=0.5;entryDx=0;entryDy=0;" edge="1" parent="1" target="1MxPp7PBHnicv2gRr7QU-35">
          <mxGeometry width="50" height="50" relative="1" as="geometry">
            <mxPoint x="360" y="-440" as="sourcePoint" />
            <mxPoint x="380" y="-530" as="targetPoint" />
          </mxGeometry>
        </mxCell>
        <mxCell id="1MxPp7PBHnicv2gRr7QU-37" value="" style="endArrow=none;html=1;rounded=0;entryX=0.5;entryY=1;entryDx=0;entryDy=0;" edge="1" parent="1" target="1MxPp7PBHnicv2gRr7QU-35">
          <mxGeometry width="50" height="50" relative="1" as="geometry">
            <mxPoint x="464" y="-370" as="sourcePoint" />
            <mxPoint x="510" y="-420" as="targetPoint" />
          </mxGeometry>
        </mxCell>
        <mxCell id="1MxPp7PBHnicv2gRr7QU-38" value="0,N" style="text;html=1;strokeColor=none;fillColor=none;align=center;verticalAlign=middle;whiteSpace=wrap;rounded=0;" vertex="1" parent="1">
          <mxGeometry x="350" y="-440" width="60" height="30" as="geometry" />
        </mxCell>
        <mxCell id="1MxPp7PBHnicv2gRr7QU-39" value="1,N" style="text;html=1;strokeColor=none;fillColor=none;align=center;verticalAlign=middle;whiteSpace=wrap;rounded=0;" vertex="1" parent="1">
          <mxGeometry x="414" y="-400" width="60" height="30" as="geometry" />
        </mxCell>
        <mxCell id="1MxPp7PBHnicv2gRr7QU-40" value="genre_artist" style="swimlane;fontStyle=0;childLayout=stackLayout;horizontal=1;startSize=30;horizontalStack=0;resizeParent=1;resizeParentMax=0;resizeLast=0;collapsible=1;marginBottom=0;whiteSpace=wrap;html=1;" vertex="1" parent="1">
          <mxGeometry x="500" y="-570" width="140" height="90" as="geometry" />
        </mxCell>
        <mxCell id="1MxPp7PBHnicv2gRr7QU-41" value="genre_id" style="text;strokeColor=none;fillColor=none;align=left;verticalAlign=middle;spacingLeft=4;spacingRight=4;overflow=hidden;points=[[0,0.5],[1,0.5]];portConstraint=eastwest;rotatable=0;whiteSpace=wrap;html=1;" vertex="1" parent="1MxPp7PBHnicv2gRr7QU-40">
          <mxGeometry y="30" width="140" height="30" as="geometry" />
        </mxCell>
        <mxCell id="1MxPp7PBHnicv2gRr7QU-42" value="artist_id" style="text;strokeColor=none;fillColor=none;align=left;verticalAlign=middle;spacingLeft=4;spacingRight=4;overflow=hidden;points=[[0,0.5],[1,0.5]];portConstraint=eastwest;rotatable=0;whiteSpace=wrap;html=1;" vertex="1" parent="1MxPp7PBHnicv2gRr7QU-40">
          <mxGeometry y="60" width="140" height="30" as="geometry" />
        </mxCell>
        <mxCell id="1MxPp7PBHnicv2gRr7QU-44" value="Table pivot&lt;br&gt;" style="shape=callout;whiteSpace=wrap;html=1;perimeter=calloutPerimeter;" vertex="1" parent="1">
          <mxGeometry x="580" y="-640" width="90" height="60" as="geometry" />
        </mxCell>
        <mxCell id="1MxPp7PBHnicv2gRr7QU-45" value="" style="endArrow=none;dashed=1;html=1;dashPattern=1 3;strokeWidth=2;rounded=0;entryX=0;entryY=0.667;entryDx=0;entryDy=0;entryPerimeter=0;" edge="1" parent="1" target="1MxPp7PBHnicv2gRr7QU-41">
          <mxGeometry width="50" height="50" relative="1" as="geometry">
            <mxPoint x="280" y="-520" as="sourcePoint" />
            <mxPoint x="390" y="-520" as="targetPoint" />
          </mxGeometry>
        </mxCell>
        <mxCell id="1MxPp7PBHnicv2gRr7QU-46" value="" style="endArrow=none;dashed=1;html=1;dashPattern=1 3;strokeWidth=2;rounded=0;entryX=0.5;entryY=1.033;entryDx=0;entryDy=0;entryPerimeter=0;" edge="1" parent="1" target="1MxPp7PBHnicv2gRr7QU-42">
          <mxGeometry width="50" height="50" relative="1" as="geometry">
            <mxPoint x="570" y="-360" as="sourcePoint" />
            <mxPoint x="690" y="-412.5" as="targetPoint" />
          </mxGeometry>
        </mxCell>
        <mxCell id="1MxPp7PBHnicv2gRr7QU-47" value="" style="endArrow=none;dashed=1;html=1;dashPattern=1 3;strokeWidth=2;rounded=0;" edge="1" parent="1">
          <mxGeometry width="50" height="50" relative="1" as="geometry">
            <mxPoint x="530" y="-360" as="sourcePoint" />
            <mxPoint x="570" y="-360" as="targetPoint" />
          </mxGeometry>
        </mxCell>
        <mxCell id="1MxPp7PBHnicv2gRr7QU-48" value="" style="endArrow=none;dashed=1;html=1;dashPattern=1 3;strokeWidth=2;rounded=0;" edge="1" parent="1">
          <mxGeometry width="50" height="50" relative="1" as="geometry">
            <mxPoint x="280" y="-470" as="sourcePoint" />
            <mxPoint x="280" y="-520" as="targetPoint" />
          </mxGeometry>
        </mxCell>
        <mxCell id="1MxPp7PBHnicv2gRr7QU-49" value="" style="endArrow=none;dashed=1;html=1;dashPattern=1 3;strokeWidth=2;rounded=0;" edge="1" parent="1">
          <mxGeometry width="50" height="50" relative="1" as="geometry">
            <mxPoint x="640" y="360" as="sourcePoint" />
            <mxPoint x="640" y="400" as="targetPoint" />
          </mxGeometry>
        </mxCell>
        <mxCell id="1MxPp7PBHnicv2gRr7QU-50" value="" style="endArrow=none;dashed=1;html=1;dashPattern=1 3;strokeWidth=2;rounded=0;entryX=0.214;entryY=1.1;entryDx=0;entryDy=0;entryPerimeter=0;" edge="1" parent="1" target="bw-IX-_6H2uLO_dws2v9-40">
          <mxGeometry width="50" height="50" relative="1" as="geometry">
            <mxPoint x="640" y="549.5" as="sourcePoint" />
            <mxPoint x="750" y="549.5" as="targetPoint" />
          </mxGeometry>
        </mxCell>
        <mxCell id="1MxPp7PBHnicv2gRr7QU-51" value="User" style="swimlane;fontStyle=0;childLayout=stackLayout;horizontal=1;startSize=26;horizontalStack=0;resizeParent=1;resizeParentMax=0;resizeLast=0;collapsible=1;marginBottom=0;align=center;fontSize=14;" vertex="1" parent="1">
          <mxGeometry x="180" width="160" height="86" as="geometry" />
        </mxCell>
        <mxCell id="1MxPp7PBHnicv2gRr7QU-52" value="email" style="text;strokeColor=none;fillColor=none;spacingLeft=4;spacingRight=4;overflow=hidden;rotatable=0;points=[[0,0.5],[1,0.5]];portConstraint=eastwest;fontSize=12;whiteSpace=wrap;html=1;" vertex="1" parent="1MxPp7PBHnicv2gRr7QU-51">
          <mxGeometry y="26" width="160" height="30" as="geometry" />
        </mxCell>
        <mxCell id="1MxPp7PBHnicv2gRr7QU-53" value="password" style="text;strokeColor=none;fillColor=none;spacingLeft=4;spacingRight=4;overflow=hidden;rotatable=0;points=[[0,0.5],[1,0.5]];portConstraint=eastwest;fontSize=12;whiteSpace=wrap;html=1;" vertex="1" parent="1MxPp7PBHnicv2gRr7QU-51">
          <mxGeometry y="56" width="160" height="30" as="geometry" />
        </mxCell>
        <mxCell id="1MxPp7PBHnicv2gRr7QU-55" value="Attribute" style="ellipse;whiteSpace=wrap;html=1;align=center;" vertex="1" parent="1">
          <mxGeometry x="210" y="140" width="100" height="40" as="geometry" />
        </mxCell>
        <mxCell id="1MxPp7PBHnicv2gRr7QU-56" value="Attribute" style="ellipse;whiteSpace=wrap;html=1;align=center;" vertex="1" parent="1">
          <mxGeometry x="210" y="-80" width="100" height="40" as="geometry" />
        </mxCell>
        <mxCell id="1MxPp7PBHnicv2gRr7QU-57" value="" style="endArrow=none;html=1;rounded=0;entryX=0.5;entryY=1;entryDx=0;entryDy=0;exitX=0.5;exitY=0;exitDx=0;exitDy=0;exitPerimeter=0;" edge="1" parent="1" source="1MxPp7PBHnicv2gRr7QU-51" target="1MxPp7PBHnicv2gRr7QU-56">
          <mxGeometry width="50" height="50" relative="1" as="geometry">
            <mxPoint x="250" as="sourcePoint" />
            <mxPoint x="300" y="-50" as="targetPoint" />
          </mxGeometry>
        </mxCell>
        <mxCell id="1MxPp7PBHnicv2gRr7QU-58" value="" style="endArrow=none;html=1;rounded=0;entryX=0;entryY=0.5;entryDx=0;entryDy=0;" edge="1" parent="1" target="1MxPp7PBHnicv2gRr7QU-55">
          <mxGeometry width="50" height="50" relative="1" as="geometry">
            <mxPoint x="-90" y="160" as="sourcePoint" />
            <mxPoint x="70" y="140" as="targetPoint" />
          </mxGeometry>
        </mxCell>
        <mxCell id="1MxPp7PBHnicv2gRr7QU-59" value="" style="endArrow=none;html=1;rounded=0;entryX=0;entryY=0.3;entryDx=0;entryDy=0;exitX=0.5;exitY=0;exitDx=0;exitDy=0;exitPerimeter=0;entryPerimeter=0;" edge="1" parent="1" target="1MxPp7PBHnicv2gRr7QU-11">
          <mxGeometry width="50" height="50" relative="1" as="geometry">
            <mxPoint x="309" y="-60" as="sourcePoint" />
            <mxPoint x="309" y="-100" as="targetPoint" />
          </mxGeometry>
        </mxCell>
        <mxCell id="1MxPp7PBHnicv2gRr7QU-61" value="" style="endArrow=none;html=1;rounded=0;exitX=0.5;exitY=0;exitDx=0;exitDy=0;" edge="1" parent="1" source="1MxPp7PBHnicv2gRr7QU-55" target="1MxPp7PBHnicv2gRr7QU-53">
          <mxGeometry width="50" height="50" relative="1" as="geometry">
            <mxPoint x="260" y="110" as="sourcePoint" />
            <mxPoint x="259" y="90" as="targetPoint" />
          </mxGeometry>
        </mxCell>
        <mxCell id="1MxPp7PBHnicv2gRr7QU-63" value="1,1" style="text;html=1;strokeColor=none;fillColor=none;align=center;verticalAlign=middle;whiteSpace=wrap;rounded=0;" vertex="1" parent="1">
          <mxGeometry x="340" y="-90" width="60" height="30" as="geometry" />
        </mxCell>
        <mxCell id="1MxPp7PBHnicv2gRr7QU-64" value="1,1" style="text;html=1;strokeColor=none;fillColor=none;align=center;verticalAlign=middle;whiteSpace=wrap;rounded=0;" vertex="1" parent="1">
          <mxGeometry x="250" y="-30" width="60" height="30" as="geometry" />
        </mxCell>
        <mxCell id="1MxPp7PBHnicv2gRr7QU-65" value="1,1" style="text;html=1;strokeColor=none;fillColor=none;align=center;verticalAlign=middle;whiteSpace=wrap;rounded=0;" vertex="1" parent="1">
          <mxGeometry x="250" y="86" width="60" height="30" as="geometry" />
        </mxCell>
        <mxCell id="1MxPp7PBHnicv2gRr7QU-70" value="" style="endArrow=none;html=1;rounded=0;entryX=0.5;entryY=1;entryDx=0;entryDy=0;exitX=0.5;exitY=0;exitDx=0;exitDy=0;" edge="1" parent="1" source="bw-IX-_6H2uLO_dws2v9-25" target="bw-IX-_6H2uLO_dws2v9-29">
          <mxGeometry width="50" height="50" relative="1" as="geometry">
            <mxPoint x="455" y="520" as="sourcePoint" />
            <mxPoint x="505" y="470" as="targetPoint" />
          </mxGeometry>
        </mxCell>
        <mxCell id="1MxPp7PBHnicv2gRr7QU-82" value="" style="endArrow=none;html=1;rounded=0;" edge="1" parent="1">
          <mxGeometry width="50" height="50" relative="1" as="geometry">
            <mxPoint x="-120" y="320" as="sourcePoint" />
            <mxPoint x="-120" y="320" as="targetPoint" />
          </mxGeometry>
        </mxCell>
        <mxCell id="1MxPp7PBHnicv2gRr7QU-84" value="" style="endArrow=none;html=1;rounded=0;" edge="1" parent="1">
          <mxGeometry width="50" height="50" relative="1" as="geometry">
            <mxPoint x="-120" y="-240" as="sourcePoint" />
            <mxPoint x="-120" y="-239.99999999999977" as="targetPoint" />
          </mxGeometry>
        </mxCell>
        <mxCell id="1MxPp7PBHnicv2gRr7QU-106" value="favorite ????" style="swimlane;fontStyle=0;childLayout=stackLayout;horizontal=1;startSize=30;horizontalStack=0;resizeParent=1;resizeParentMax=0;resizeLast=0;collapsible=1;marginBottom=0;whiteSpace=wrap;html=1;" vertex="1" parent="1">
          <mxGeometry x="-10" y="-30" width="140" height="60" as="geometry" />
        </mxCell>
        <mxCell id="1MxPp7PBHnicv2gRr7QU-110" value="" style="endArrow=none;html=1;rounded=0;" edge="1" parent="1">
          <mxGeometry width="50" height="50" relative="1" as="geometry">
            <mxPoint x="60" y="-30" as="sourcePoint" />
            <mxPoint x="60" y="-110" as="targetPoint" />
          </mxGeometry>
        </mxCell>
        <mxCell id="1MxPp7PBHnicv2gRr7QU-111" value="" style="endArrow=none;html=1;rounded=0;entryX=0;entryY=0.667;entryDx=0;entryDy=0;entryPerimeter=0;" edge="1" parent="1" source="1MxPp7PBHnicv2gRr7QU-113" target="Tn6UdyqkFmI2WBixfoAO-25">
          <mxGeometry width="50" height="50" relative="1" as="geometry">
            <mxPoint x="60" y="-100" as="sourcePoint" />
            <mxPoint x="110" y="-150" as="targetPoint" />
          </mxGeometry>
        </mxCell>
        <mxCell id="1MxPp7PBHnicv2gRr7QU-114" value="" style="endArrow=none;html=1;rounded=0;entryX=0;entryY=0.5;entryDx=0;entryDy=0;" edge="1" parent="1" target="1MxPp7PBHnicv2gRr7QU-113">
          <mxGeometry width="50" height="50" relative="1" as="geometry">
            <mxPoint x="60" y="-110" as="sourcePoint" />
            <mxPoint x="389" y="-103" as="targetPoint" />
          </mxGeometry>
        </mxCell>
        <mxCell id="1MxPp7PBHnicv2gRr7QU-113" value="Attribute" style="ellipse;whiteSpace=wrap;html=1;align=center;" vertex="1" parent="1">
          <mxGeometry x="200" y="-130" width="100" height="40" as="geometry" />
        </mxCell>
        <mxCell id="1MxPp7PBHnicv2gRr7QU-115" value="1,1" style="text;html=1;strokeColor=none;fillColor=none;align=center;verticalAlign=middle;whiteSpace=wrap;rounded=0;" vertex="1" parent="1">
          <mxGeometry x="-180" y="130" width="60" height="30" as="geometry" />
        </mxCell>
      </root>
    </mxGraphModel>
  </diagram>
</mxfile>
